<?xml version="1.0" encoding="UTF-8"?>
<svg width="42" height="34" xmlns="http://www.w3.org/2000/svg"><g fill="none" fill-rule="evenodd"><path fill="#048400" d="M0 15h42v19H0z"/><path d="M17.85 25.26l-2.3-3.4h1.82l1.4 2.28 1.45-2.28h1.72l-2.29 3.41L22.14 29h-1.87l-1.56-2.47L17.12 29h-1.76l2.49-3.74zm6.42-3.4h1.57v5.82h3.48V29h-5.05v-7.14zm8.5 4.77c0 .24.043.443.13.61.087.167.202.302.345.405.143.103.312.18.505.23.193.05.393.075.6.075.14 0 .29-.012.45-.035.16-.023.31-.068.45-.135a.982.982 0 0 0 .35-.275.69.69 0 0 0 .14-.445.626.626 0 0 0-.185-.47 1.467 1.467 0 0 0-.485-.3 4.84 4.84 0 0 0-.68-.21c-.253-.06-.51-.127-.77-.2a6.837 6.837 0 0 1-.78-.245 2.68 2.68 0 0 1-.68-.375 1.766 1.766 0 0 1-.485-.575c-.123-.23-.185-.508-.185-.835 0-.367.078-.685.235-.955a2.13 2.13 0 0 1 .615-.675c.253-.18.54-.313.86-.4.32-.087.64-.13.96-.13.373 0 .732.042 1.075.125.343.083.648.218.915.405.267.187.478.425.635.715.157.29.235.642.235 1.055H35.5a1.262 1.262 0 0 0-.135-.53.883.883 0 0 0-.305-.33 1.29 1.29 0 0 0-.435-.17 2.678 2.678 0 0 0-.535-.05 1.84 1.84 0 0 0-.38.04 1.016 1.016 0 0 0-.345.14.868.868 0 0 0-.255.25c-.067.1-.1.227-.1.38 0 .14.027.253.08.34.053.087.158.167.315.24.157.073.373.147.65.22.277.073.638.167 1.085.28.133.027.318.075.555.145.237.07.472.182.705.335.233.153.435.358.605.615.17.257.255.585.255.985 0 .327-.063.63-.19.91s-.315.522-.565.725c-.25.203-.56.362-.93.475-.37.113-.798.17-1.285.17a4.51 4.51 0 0 1-1.145-.145 2.88 2.88 0 0 1-.98-.455 2.248 2.248 0 0 1-.675-.79c-.167-.32-.247-.7-.24-1.14h1.52z" fill="#FFF"/><path fill="#CFCFCE" d="M14 0v15h3V3.167h22V15h3V0z"/><path fill="#EEECEA" d="M18 7h6V4h-6zM32 7h6V4h-6zM25 7h6V4h-6zM18 11h6V8h-6zM32 11h6V8h-6zM25 11h6V8h-6zM18 15h6v-3h-6zM32 15h6v-3h-6zM25 15h6v-3h-6z"/></g></svg>
