<?xml version="1.0" encoding="UTF-8"?>
<svg width="80" height="113" xmlns="http://www.w3.org/2000/svg" xmlns:xlink="http://www.w3.org/1999/xlink"><defs><filter x="-9.4%" y="-5.2%" width="114.6%" height="114.6%" filterUnits="objectBoundingBox" id="a"><feOffset dx="-.5" dy=".5" in="SourceAlpha" result="shadowOffsetOuter1"/><feGaussianBlur stdDeviation=".5" in="shadowOffsetOuter1" result="shadowBlurOuter1"/><feColorMatrix values="0 0 0 0 0 0 0 0 0 0 0 0 0 0 0 0 0 0 0.1 0" in="shadowBlurOuter1"/></filter><path id="b" d="M50 6l24 24H50z"/></defs><g fill="none" fill-rule="evenodd"><path fill="#E4E4E3" d="M0 0h80v113H.04z"/><path fill="#BBB" d="M74.002 30v77.209h-68V6H50z"/><use fill="#000" filter="url(#a)" xlink:href="#b"/><use fill="#F1F1F1" xlink:href="#b"/><path d="M37.305 63.453v-1.93h-6.516l6.273-7.726V52H28.68v1.938h5.336L28 61.367v2.085h9.305zm3.417 0V52H38.41v11.453h2.312zm4.23 0v-4.32h1.508c1.047 0 1.846-.055 2.398-.164.407-.089.806-.27 1.2-.543a3.14 3.14 0 00.972-1.13c.255-.478.383-1.07.383-1.773 0-.911-.221-1.655-.664-2.23-.443-.576-.992-.95-1.649-1.121-.427-.115-1.343-.172-2.75-.172h-3.71v11.453h2.312zm1.266-6.266h-1.266v-3.25h1.117c.834 0 1.388.027 1.664.079a1.6 1.6 0 01.93.507c.245.271.367.615.367 1.032 0 .338-.087.635-.262.89a1.518 1.518 0 01-.722.563c-.308.12-.917.18-1.828.18z" fill="#FFF" fill-rule="nonzero"/></g></svg>
