<?xml version="1.0" encoding="UTF-8"?>
<svg width="80" height="113" xmlns="http://www.w3.org/2000/svg" xmlns:xlink="http://www.w3.org/1999/xlink"><defs><path id="b" d="M50 6l24 24H50z"/><filter x="-9.4%" y="-5.2%" width="114.6%" height="114.6%" filterUnits="objectBoundingBox" id="a"><feOffset dx="-.5" dy=".5" in="SourceAlpha" result="shadowOffsetOuter1"/><feGaussianBlur stdDeviation=".5" in="shadowOffsetOuter1" result="shadowBlurOuter1"/><feColorMatrix values="0 0 0 0 0 0 0 0 0 0 0 0 0 0 0 0 0 0 0.1 0" in="shadowBlurOuter1"/></filter></defs><g fill="none" fill-rule="evenodd"><path fill="#E4E4E3" d="M0 0h80v113H.04z"/><path fill="#BBB" d="M74.002 30v77.209h-68V6H50z"/><use fill="#000" filter="url(#a)" xlink:href="#b"/><use fill="#F1F1F1" xlink:href="#b"/><path d="M20 62.648l3.914-5.976-3.547-5.477h2.703l2.297 3.68 2.25-3.68h2.68l-3.563 5.563 3.914 5.89H27.86l-2.539-3.96-2.547 3.96H20zm11.428 0V51.29h2.312v9.43h5.75v1.93h-8.062zm8.654-3.726l2.25-.219c.136.755.41 1.31.824 1.664.415.354.973.531 1.676.531.745 0 1.306-.157 1.684-.472.377-.315.566-.684.566-1.106 0-.27-.08-.501-.238-.691-.159-.19-.436-.356-.832-.496-.27-.094-.888-.26-1.852-.5-1.24-.307-2.109-.685-2.609-1.133-.703-.63-1.055-1.398-1.055-2.305 0-.583.166-1.129.496-1.636.331-.508.808-.895 1.43-1.16.623-.266 1.374-.399 2.254-.399 1.438 0 2.52.315 3.246.945.727.63 1.108 1.472 1.145 2.524l-2.313.101c-.099-.588-.311-1.011-.637-1.27-.325-.257-.813-.386-1.464-.386-.672 0-1.198.138-1.579.414a.834.834 0 0 0-.367.711c0 .27.115.503.344.695.292.245 1 .5 2.125.766s1.957.54 2.496.824c.54.284.961.672 1.266 1.164.304.492.457 1.1.457 1.825 0 .656-.183 1.27-.547 1.843-.365.573-.88.999-1.547 1.278-.667.278-1.497.418-2.492.418-1.448 0-2.56-.335-3.336-1.004-.776-.67-1.24-1.645-1.39-2.926zm9.623 3.726l3.914-5.976-3.546-5.477h2.703l2.297 3.68 2.25-3.68h2.68l-3.563 5.563 3.914 5.89h-2.79l-2.538-3.96-2.547 3.96h-2.774z" fill="#FFF"/></g></svg>
