<?xml version="1.0" encoding="UTF-8"?>
<svg width="80" height="113" xmlns="http://www.w3.org/2000/svg" xmlns:xlink="http://www.w3.org/1999/xlink"><defs><filter x="-9.4%" y="-5.2%" width="114.6%" height="114.6%" filterUnits="objectBoundingBox" id="a"><feOffset dx="-.5" dy=".5" in="SourceAlpha" result="shadowOffsetOuter1"/><feGaussianBlur stdDeviation=".5" in="shadowOffsetOuter1" result="shadowBlurOuter1"/><feColorMatrix values="0 0 0 0 0 0 0 0 0 0 0 0 0 0 0 0 0 0 0.1 0" in="shadowBlurOuter1"/></filter><path id="b" d="M50 6l24 24H50z"/></defs><g fill="none" fill-rule="evenodd"><path fill="#E4E4E3" d="M0 0h80v113H.04z"/><path fill="#BBB" d="M74.002 30v77.209h-68V6H50z"/><use fill="#000" filter="url(#a)" xlink:href="#b"/><use fill="#F1F1F1" xlink:href="#b"/><path d="M29.71 63.453v-9.516h3.392V52H24v1.938h3.398v9.515h2.313zm6.715 0v-9.016l2.266 9.016h2.226l2.274-9.016v9.016h2.148V52h-3.468l-2.055 7.813L37.738 52h-3.461v11.453h2.148zm12.535 0l2.547-3.96 2.539 3.96h2.789l-3.914-5.89L56.483 52h-2.68l-2.25 3.68L49.258 52h-2.703l3.546 5.477-3.914 5.976h2.774z" fill="#FFF" fill-rule="nonzero"/></g></svg>
