<?xml version="1.0" encoding="UTF-8"?>
<svg width="80" height="113" xmlns="http://www.w3.org/2000/svg" xmlns:xlink="http://www.w3.org/1999/xlink"><defs><path id="b" d="M50 6l24 24H50z"/><filter x="-9.4%" y="-5.2%" width="114.6%" height="114.6%" filterUnits="objectBoundingBox" id="a"><feOffset dx="-.5" dy=".5" in="SourceAlpha" result="shadowOffsetOuter1"/><feGaussianBlur stdDeviation=".5" in="shadowOffsetOuter1" result="shadowBlurOuter1"/><feColorMatrix values="0 0 0 0 0 0 0 0 0 0 0 0 0 0 0 0 0 0 0.1 0" in="shadowBlurOuter1"/></filter></defs><g fill="none" fill-rule="evenodd"><path fill="#E4E4E3" d="M0 0h80v113H.04z"/><path fill="#BBB" d="M74.002 30v77.209h-68V6H50z"/><use fill="#000" filter="url(#a)" xlink:href="#b"/><use fill="#F1F1F1" xlink:href="#b"/><path d="M25.87 63V51.547h3.71c1.407 0 2.324.057 2.75.172.657.172 1.207.545 1.65 1.12.442.576.663 1.32.663 2.231 0 .703-.127 1.295-.382 1.774a3.14 3.14 0 0 1-.973 1.129 3.352 3.352 0 0 1-1.2.543c-.551.109-1.35.164-2.398.164h-1.508V63H25.87zm2.312-9.516v3.25h1.266c.912 0 1.52-.06 1.828-.18.307-.12.548-.307.723-.562a1.54 1.54 0 0 0 .262-.89c0-.417-.123-.76-.368-1.032a1.6 1.6 0 0 0-.93-.508c-.275-.052-.83-.078-1.663-.078h-1.118zm7.881-1.937h4.227c.953 0 1.68.073 2.18.219a3.83 3.83 0 0 1 1.726 1.054c.48.506.844 1.124 1.094 1.856.25.732.375 1.634.375 2.707 0 .943-.117 1.755-.352 2.437-.286.834-.695 1.508-1.226 2.024-.401.39-.943.695-1.625.914-.51.161-1.193.242-2.047.242h-4.352V51.547zm2.313 1.937v7.586h1.726c.646 0 1.112-.036 1.399-.11.375-.093.686-.252.934-.476.247-.224.449-.592.605-1.105.156-.513.234-1.212.234-2.098 0-.885-.078-1.565-.234-2.039-.156-.474-.375-.844-.656-1.11-.282-.265-.638-.444-1.07-.538-.323-.073-.956-.11-1.899-.11h-1.04zM47.17 63V51.547h7.852v1.937h-5.54v2.711h4.782v1.938h-4.782V63h-2.312z" fill="#FFF"/></g></svg>
