<?xml version="1.0" encoding="UTF-8"?>
<svg width="42" height="34" xmlns="http://www.w3.org/2000/svg"><g fill="none" fill-rule="evenodd"><path fill="#0360A6" d="M0 15h42v19H0z"/><path d="M15.22 23.18h-2.14v-1.32h5.85v1.32h-2.14V29h-1.57v-5.82zm5.93-1.32h2.21l1.67 4.91h.02l1.58-4.91h2.21V29h-1.47v-5.06h-.02L25.6 29h-1.21l-1.75-5.01h-.02V29h-1.47v-7.14zm12.22 3.4l-2.3-3.4h1.82l1.4 2.28 1.45-2.28h1.72l-2.29 3.41L37.66 29h-1.87l-1.56-2.47L32.64 29h-1.76l2.49-3.74z" fill="#FFF"/><path fill="#CFCFCE" d="M14 0v15h3V3.167h22V15h3V0z"/><g fill="#EEECEA"><path d="M24.107 14.198l-5.091-5.091L19 9.09 24.091 4l1.572 1.571-3.519 3.52 3.534 3.536-1.571 1.571zM32.091 4l5.091 5.091.016.016-5.091 5.091-1.571-1.571 3.518-3.52L30.52 5.57 32.09 4z"/></g></g></svg>
