<?xml version="1.0" encoding="UTF-8"?>
<svg width="80" height="113" xmlns="http://www.w3.org/2000/svg" xmlns:xlink="http://www.w3.org/1999/xlink"><defs><path id="b" d="M50 6l24 24H50z"/><filter x="-9.4%" y="-5.2%" width="114.6%" height="114.6%" filterUnits="objectBoundingBox" id="a"><feOffset dx="-.5" dy=".5" in="SourceAlpha" result="shadowOffsetOuter1"/><feGaussianBlur stdDeviation=".5" in="shadowOffsetOuter1" result="shadowBlurOuter1"/><feColorMatrix values="0 0 0 0 0 0 0 0 0 0 0 0 0 0 0 0 0 0 0.1 0" in="shadowBlurOuter1"/></filter></defs><g fill="none" fill-rule="evenodd"><path fill="#E4E4E3" d="M0 0h80v113H.04z"/><path fill="#BBB" d="M74.002 30v77.209h-68V6H50z"/><use fill="#000" filter="url(#a)" xlink:href="#b"/><use fill="#F1F1F1" xlink:href="#b"/><path d="M24 51.195h4.227c.953 0 1.68.073 2.18.22a3.83 3.83 0 0 1 1.726 1.054c.479.505.844 1.123 1.094 1.855.25.732.375 1.634.375 2.707 0 .943-.118 1.755-.352 2.438-.286.833-.695 1.508-1.227 2.023-.4.39-.942.695-1.625.914-.51.162-1.192.242-2.046.242H24V51.195zm2.313 1.938v7.586h1.726c.646 0 1.112-.037 1.398-.11.375-.093.687-.252.934-.476.247-.224.45-.593.606-1.106.156-.513.234-1.212.234-2.097 0-.886-.078-1.565-.234-2.04-.157-.473-.375-.843-.657-1.109-.28-.265-.638-.445-1.07-.539-.323-.073-.956-.11-1.898-.11h-1.04zm8.31 3.86c0-1.167.175-2.147.524-2.938a5.39 5.39 0 0 1 1.066-1.57c.45-.464.944-.808 1.48-1.032.714-.302 1.537-.453 2.47-.453 1.687 0 3.037.523 4.05 1.57 1.013 1.047 1.52 2.503 1.52 4.367 0 1.85-.503 3.296-1.508 4.34-1.005 1.045-2.35 1.567-4.032 1.567-1.703 0-3.057-.52-4.062-1.559-1.005-1.039-1.508-2.47-1.508-4.293zm2.383-.079c0 1.297.3 2.28.898 2.95.6.669 1.36 1.003 2.282 1.003.922 0 1.678-.332 2.27-.996.59-.664.886-1.66.886-2.988 0-1.313-.288-2.292-.863-2.938-.576-.646-1.34-.968-2.293-.968-.953 0-1.722.326-2.305.98-.583.654-.875 1.64-.875 2.957zm17.389 1.523l2.242.711c-.344 1.25-.915 2.179-1.715 2.786-.8.606-1.814.91-3.043.91-1.52 0-2.77-.52-3.75-1.559-.979-1.039-1.469-2.46-1.469-4.262 0-1.906.493-3.386 1.477-4.441C49.12 51.527 50.416 51 52.02 51c1.4 0 2.539.414 3.414 1.242.52.49.911 1.193 1.172 2.11l-2.29.546c-.135-.593-.417-1.062-.847-1.406-.43-.344-.952-.515-1.566-.515-.85 0-1.538.304-2.067.914-.528.609-.793 1.596-.793 2.96 0 1.448.26 2.48.781 3.094.521.615 1.198.922 2.032.922.614 0 1.143-.195 1.586-.586.442-.39.76-1.005.953-1.843z" fill="#FFF"/></g></svg>
