<?xml version="1.0" encoding="UTF-8"?>
<svg width="80" height="113" xmlns="http://www.w3.org/2000/svg" xmlns:xlink="http://www.w3.org/1999/xlink"><defs><path id="b" d="M50 6l24 24H50z"/><filter x="-9.4%" y="-5.2%" width="114.6%" height="114.6%" filterUnits="objectBoundingBox" id="a"><feOffset dx="-.5" dy=".5" in="SourceAlpha" result="shadowOffsetOuter1"/><feGaussianBlur stdDeviation=".5" in="shadowOffsetOuter1" result="shadowBlurOuter1"/><feColorMatrix values="0 0 0 0 0 0 0 0 0 0 0 0 0 0 0 0 0 0 0.1 0" in="shadowBlurOuter1"/></filter></defs><g fill="none" fill-rule="evenodd"><path fill="#E4E4E3" d="M0 0h80v113H.04z"/><path fill="#BBB" d="M74.002 30v77.209h-68V6H50z"/><use fill="#000" filter="url(#a)" xlink:href="#b"/><use fill="#F1F1F1" xlink:href="#b"/><path d="M31.734 58.438l2.243.71c-.344 1.25-.916 2.179-1.715 2.786-.8.606-1.814.91-3.043.91-1.521 0-2.771-.52-3.75-1.559-.98-1.039-1.469-2.46-1.469-4.262 0-1.906.492-3.386 1.477-4.441C26.46 51.527 27.755 51 29.359 51c1.401 0 2.54.414 3.414 1.242.521.49.912 1.193 1.172 2.11l-2.289.546c-.135-.593-.418-1.062-.847-1.406-.43-.344-.952-.515-1.567-.515-.849 0-1.538.304-2.066.914-.529.609-.793 1.596-.793 2.96 0 1.448.26 2.48.781 3.094.52.615 1.198.922 2.031.922.615 0 1.144-.195 1.586-.586.443-.39.76-1.005.953-1.843zm3.17.484l2.25-.219c.136.755.41 1.31.825 1.664.414.354.972.531 1.675.531.745 0 1.306-.157 1.684-.472.378-.315.566-.684.566-1.106 0-.27-.079-.501-.238-.691-.159-.19-.436-.356-.832-.496-.27-.094-.888-.26-1.851-.5-1.24-.307-2.11-.685-2.61-1.133-.703-.63-1.055-1.398-1.055-2.305 0-.583.166-1.129.497-1.636.33-.508.807-.895 1.43-1.16.622-.266 1.373-.399 2.253-.399 1.438 0 2.52.315 3.246.945.727.63 1.108 1.472 1.145 2.524l-2.313.101c-.099-.588-.31-1.011-.636-1.27-.326-.257-.814-.386-1.465-.386-.672 0-1.198.138-1.578.414a.834.834 0 0 0-.368.711c0 .27.115.503.344.695.292.245 1 .5 2.125.766s1.957.54 2.496.824c.54.284.961.672 1.266 1.164.305.492.457 1.1.457 1.825 0 .656-.182 1.27-.547 1.843-.365.573-.88.999-1.547 1.278-.667.278-1.497.418-2.492.418-1.448 0-2.56-.335-3.336-1.004-.776-.67-1.24-1.645-1.39-2.926zm13.71 3.726L44.52 51.195h2.508l2.898 8.477 2.805-8.477h2.453l-4.102 11.453h-2.468z" fill="#FFF"/></g></svg>
