<?xml version="1.0" encoding="UTF-8"?>
<svg width="42" height="34" xmlns="http://www.w3.org/2000/svg"><g fill="none" fill-rule="evenodd"><path fill="#048400" d="M0 15h42v19H0z"/><path d="M19.75 24.26a1.282 1.282 0 00-.18-.495 1.578 1.578 0 00-.825-.66 1.632 1.632 0 00-.555-.095c-.353 0-.653.068-.9.205a1.7 1.7 0 00-.6.55 2.41 2.41 0 00-.335.785c-.07.293-.105.597-.105.91 0 .3.035.592.105.875.07.283.182.538.335.765.153.227.353.408.6.545.247.137.547.205.9.205.48 0 .855-.147 1.125-.44.27-.293.435-.68.495-1.16h1.52a3.63 3.63 0 01-.31 1.21c-.167.36-.387.667-.66.92a2.805 2.805 0 01-.96.58c-.367.133-.77.2-1.21.2a3.661 3.661 0 01-1.475-.285 3.16 3.16 0 01-1.105-.785c-.3-.333-.53-.725-.69-1.175-.16-.45-.24-.935-.24-1.455 0-.533.08-1.028.24-1.485.16-.457.39-.855.69-1.195.3-.34.668-.607 1.105-.8.437-.193.928-.29 1.475-.29.393 0 .765.057 1.115.17.35.113.663.278.94.495.277.217.505.485.685.805.18.32.293.687.34 1.1h-1.52zm5.22 2.37c0 .24.043.443.13.61.087.167.202.302.345.405a1.5 1.5 0 00.505.23c.193.05.393.075.6.075.14 0 .29-.012.45-.035.16-.023.31-.068.45-.135a.982.982 0 00.35-.275.69.69 0 00.14-.445.626.626 0 00-.185-.47 1.467 1.467 0 00-.485-.3 4.84 4.84 0 00-.68-.21c-.253-.06-.51-.127-.77-.2a6.837 6.837 0 01-.78-.245 2.68 2.68 0 01-.68-.375 1.766 1.766 0 01-.485-.575 1.749 1.749 0 01-.185-.835c0-.367.078-.685.235-.955a2.13 2.13 0 01.615-.675c.253-.18.54-.313.86-.4.32-.087.64-.13.96-.13.373 0 .732.042 1.075.125.343.083.648.218.915.405.267.187.478.425.635.715.157.29.235.642.235 1.055H27.7a1.262 1.262 0 00-.135-.53.883.883 0 00-.305-.33 1.29 1.29 0 00-.435-.17 2.678 2.678 0 00-.535-.05 1.84 1.84 0 00-.38.04 1.016 1.016 0 00-.345.14.868.868 0 00-.255.25.67.67 0 00-.1.38c0 .14.027.253.08.34.053.087.158.167.315.24.157.073.373.147.65.22.277.073.638.167 1.085.28.133.027.318.075.555.145.237.07.472.182.705.335.233.153.435.358.605.615.17.257.255.585.255.985 0 .327-.063.63-.19.91s-.315.522-.565.725c-.25.203-.56.362-.93.475-.37.113-.798.17-1.285.17a4.51 4.51 0 01-1.145-.145 2.88 2.88 0 01-.98-.455 2.248 2.248 0 01-.675-.79c-.167-.32-.247-.7-.24-1.14h1.52zM35.21 29h-1.77l-2.31-7.14h1.61l1.59 5.02h.02l1.61-5.02h1.62L35.21 29z" fill="#FFF"/><path fill="#CFCFCE" d="M14 0v15h3V3.167h22V15h3V0z"/><path fill="#EEECEA" d="M18 7h6V4h-6zm14 0h6V4h-6zm-7 0h6V4h-6zm-7 4h6V8h-6zm14 0h6V8h-6zm-7 0h6V8h-6zm-7 4h6v-3h-6zm14 0h6v-3h-6zm-7 0h6v-3h-6z"/></g></svg>
