<?xml version="1.0" encoding="UTF-8"?>
<svg width="80" height="113" xmlns="http://www.w3.org/2000/svg" xmlns:xlink="http://www.w3.org/1999/xlink"><defs><path id="b" d="M50 6l24 24H50z"/><filter x="-9.4%" y="-5.2%" width="114.6%" height="114.6%" filterUnits="objectBoundingBox" id="a"><feOffset dx="-.5" dy=".5" in="SourceAlpha" result="shadowOffsetOuter1"/><feGaussianBlur stdDeviation=".5" in="shadowOffsetOuter1" result="shadowBlurOuter1"/><feColorMatrix values="0 0 0 0 0 0 0 0 0 0 0 0 0 0 0 0 0 0 0.1 0" in="shadowBlurOuter1"/></filter></defs><g fill="none" fill-rule="evenodd"><path fill="#E4E4E3" d="M0 0h80v113H.04z"/><path fill="#BBB" d="M74.002 30v77.209h-68V6H50z"/><use fill="#000" filter="url(#a)" xlink:href="#b"/><use fill="#F1F1F1" xlink:href="#b"/><path d="M19 62.453V51h2.313v4.508h4.53V51h2.313v11.453h-2.312v-5.008h-4.532v5.008H19zm13.654 0v-9.516h-3.398V51h9.102v1.938h-3.391v9.515h-2.313zm6.694 0V51h3.46l2.079 7.813L46.942 51h3.468v11.453h-2.148v-9.016l-2.273 9.016h-2.227l-2.266-9.016v9.016h-2.148zm12.951 0v-11.36h2.313v9.43h5.75v1.93h-8.063z" fill="#FFF"/></g></svg>
