<?xml version="1.0" encoding="UTF-8"?>
<svg width="42" height="34" xmlns="http://www.w3.org/2000/svg"><g fill="none" fill-rule="evenodd"><path fill="#D04626" d="M0 15h42v19H0z"/><path d="M17.31 25.22h1.22c.18 0 .353-.013.52-.04a1.21 1.21 0 0 0 .44-.155.844.844 0 0 0 .305-.325c.077-.14.115-.323.115-.55 0-.227-.038-.41-.115-.55a.844.844 0 0 0-.305-.325 1.21 1.21 0 0 0-.44-.155 3.288 3.288 0 0 0-.52-.04h-1.22v2.14zm-1.57-3.36h3.22c.447 0 .827.065 1.14.195.313.13.568.302.765.515.197.213.34.457.43.73a2.715 2.715 0 0 1 0 1.695c-.09.277-.233.522-.43.735a2.133 2.133 0 0 1-.765.515c-.313.13-.693.195-1.14.195h-1.65V29h-1.57v-7.14zm9.74 3.36h1.22c.18 0 .353-.013.52-.04a1.21 1.21 0 0 0 .44-.155.844.844 0 0 0 .305-.325c.077-.14.115-.323.115-.55 0-.227-.038-.41-.115-.55a.844.844 0 0 0-.305-.325 1.21 1.21 0 0 0-.44-.155 3.288 3.288 0 0 0-.52-.04h-1.22v2.14zm-1.57-3.36h3.22c.447 0 .827.065 1.14.195.313.13.568.302.765.515.197.213.34.457.43.73a2.715 2.715 0 0 1 0 1.695c-.09.277-.233.522-.43.735a2.133 2.133 0 0 1-.765.515c-.313.13-.693.195-1.14.195h-1.65V29h-1.57v-7.14zm9.75 1.32h-2.14v-1.32h5.85v1.32h-2.14V29h-1.57v-5.82z" fill="#FFF"/><path fill="#CFCFCE" d="M14 0v15h3V3.167h22V15h3V0z"/><path fill="#EEECEA" d="M32 11h6V8h-6zM32 15h6v-3h-6zM19.942 15h8.935a6.388 6.388 0 0 0 1.94-4.583H24V4.021a6.404 6.404 0 0 0-6 6.388c0 1.802.746 3.427 1.942 4.591"/></g></svg>
