<?xml version="1.0" encoding="UTF-8"?>
<svg width="42" height="34" xmlns="http://www.w3.org/2000/svg"><g fill="none" fill-rule="evenodd"><path fill="#CFCFCE" d="M14 0v15h3V3.167h22V15h3V0z"/><path fill="#EEECEA" d="M18 8.75h20V4H18zM18 14.75h20.001V10H18z"/><path fill="#366AD0" d="M0 15h42v19H0z"/><path d="M14.16 27.68h1.4c.227 0 .447-.037.66-.11.213-.073.403-.195.57-.365.167-.17.3-.392.4-.665.1-.273.15-.607.15-1 0-.36-.035-.685-.105-.975a1.945 1.945 0 0 0-.345-.745 1.53 1.53 0 0 0-.635-.475c-.263-.11-.588-.165-.975-.165h-1.12v4.5zm-1.57-5.82h3.08c.46 0 .888.073 1.285.22.397.147.74.367 1.03.66.29.293.517.66.68 1.1.163.44.245.957.245 1.55 0 .52-.067 1-.2 1.44-.133.44-.335.82-.605 1.14-.27.32-.607.572-1.01.755-.403.183-.878.275-1.425.275h-3.08v-7.14zm10.17 3.6c0 .3.035.592.105.875.07.283.182.538.335.765.153.227.353.408.6.545.247.137.547.205.9.205s.653-.068.9-.205c.247-.137.447-.318.6-.545.153-.227.265-.482.335-.765.07-.283.105-.575.105-.875 0-.313-.035-.617-.105-.91a2.41 2.41 0 0 0-.335-.785 1.7 1.7 0 0 0-.6-.55c-.247-.137-.547-.205-.9-.205s-.653.068-.9.205a1.7 1.7 0 0 0-.6.55 2.41 2.41 0 0 0-.335.785c-.07.293-.105.597-.105.91zm-1.57 0c0-.533.08-1.028.24-1.485.16-.457.39-.855.69-1.195.3-.34.668-.607 1.105-.8.437-.193.928-.29 1.475-.29.553 0 1.047.097 1.48.29.433.193.8.46 1.1.8.3.34.53.738.69 1.195.16.457.24.952.24 1.485 0 .52-.08 1.005-.24 1.455-.16.45-.39.842-.69 1.175-.3.333-.667.595-1.1.785-.433.19-.927.285-1.48.285a3.661 3.661 0 0 1-1.475-.285 3.16 3.16 0 0 1-1.105-.785c-.3-.333-.53-.725-.69-1.175-.16-.45-.24-.935-.24-1.455zm14.35-1.2a1.282 1.282 0 0 0-.18-.495 1.578 1.578 0 0 0-.825-.66 1.632 1.632 0 0 0-.555-.095c-.353 0-.653.068-.9.205a1.7 1.7 0 0 0-.6.55 2.41 2.41 0 0 0-.335.785c-.07.293-.105.597-.105.91 0 .3.035.592.105.875.07.283.182.538.335.765.153.227.353.408.6.545.247.137.547.205.9.205.48 0 .855-.147 1.125-.44.27-.293.435-.68.495-1.16h1.52a3.63 3.63 0 0 1-.31 1.21c-.167.36-.387.667-.66.92a2.805 2.805 0 0 1-.96.58c-.367.133-.77.2-1.21.2a3.661 3.661 0 0 1-1.475-.285 3.16 3.16 0 0 1-1.105-.785c-.3-.333-.53-.725-.69-1.175-.16-.45-.24-.935-.24-1.455 0-.533.08-1.028.24-1.485.16-.457.39-.855.69-1.195.3-.34.668-.607 1.105-.8.437-.193.928-.29 1.475-.29.393 0 .765.057 1.115.17.35.113.663.278.94.495.277.217.505.485.685.805.18.32.293.687.34 1.1h-1.52z" fill="#FFF"/></g></svg>
