<svg xmlns="http://www.w3.org/2000/svg" width="20" height="20" fill="none"><g clip-path="url(#a)"><path d="M10 0v2.812H2.812v14.376h14.376L17.186 10h2.812L20 20H0V0h10Zm9.947 0v5.554l-1.765-1.769-7.594 7.609-1.992-2.019 7.58-7.586L14.392 0h5.555Z" fill="#000"/><mask id="b" style="mask-type:luminance" maskUnits="userSpaceOnUse" x="0" y="0" width="20" height="20"><path d="M10 0v2.812H2.812v14.376h14.376L17.186 10h2.812L20 20H0V0h10Zm9.947 0v5.554l-1.765-1.769-7.594 7.609-1.992-2.019 7.58-7.586L14.392 0h5.555Z" fill="#000"/></mask><g mask="url(#b)"><path fill-rule="evenodd" clip-rule="evenodd" d="M0 0h20v20H0V0Z" fill="#000"/></g></g><defs><clipPath id="a"><path fill="#000" d="M0 0h20v20H0z"/></clipPath></defs></svg>
