<?xml version="1.0" encoding="UTF-8"?>
<svg width="42" height="34" xmlns="http://www.w3.org/2000/svg"><g fill="none" fill-rule="evenodd"><path fill="#CFCFCE" d="M14 0v15h3V3.167h22V15h3V0z"/><path fill="#EEECEA" d="M18 8.75h20V4H18zM18 14.75h20.001V10H18z"/><path fill="#BE0720" d="M0 15h42v19H0z"/><path d="M18.25 25.22h1.22c.18 0 .353-.013.52-.04a1.21 1.21 0 0 0 .44-.155.844.844 0 0 0 .305-.325c.077-.14.115-.323.115-.55 0-.227-.038-.41-.115-.55a.844.844 0 0 0-.305-.325 1.21 1.21 0 0 0-.44-.155 3.288 3.288 0 0 0-.52-.04h-1.22v2.14zm-1.57-3.36h3.22c.447 0 .827.065 1.14.195.313.13.568.302.765.515.197.213.34.457.43.73a2.715 2.715 0 0 1 0 1.695c-.09.277-.233.522-.43.735a2.133 2.133 0 0 1-.765.515c-.313.13-.693.195-1.14.195h-1.65V29h-1.57v-7.14zm9.74 5.82h1.4c.227 0 .447-.037.66-.11.213-.073.403-.195.57-.365.167-.17.3-.392.4-.665.1-.273.15-.607.15-1 0-.36-.035-.685-.105-.975a1.945 1.945 0 0 0-.345-.745 1.53 1.53 0 0 0-.635-.475c-.263-.11-.588-.165-.975-.165h-1.12v4.5zm-1.57-5.82h3.08c.46 0 .888.073 1.285.22.397.147.74.367 1.03.66.29.293.517.66.68 1.1.163.44.245.957.245 1.55 0 .52-.067 1-.2 1.44-.133.44-.335.82-.605 1.14-.27.32-.607.572-1.01.755-.403.183-.878.275-1.425.275h-3.08v-7.14zm8.91 0h5.02v1.32h-3.45v1.65h2.99v1.22h-2.99V29h-1.57v-7.14z" fill="#FFF"/></g></svg>
