<?xml version="1.0" encoding="UTF-8"?>
<svg width="80" height="113" xmlns="http://www.w3.org/2000/svg" xmlns:xlink="http://www.w3.org/1999/xlink"><defs><path id="b" d="M50 6l24 24H50z"/><filter x="-9.4%" y="-5.2%" width="114.6%" height="114.6%" filterUnits="objectBoundingBox" id="a"><feOffset dx="-.5" dy=".5" in="SourceAlpha" result="shadowOffsetOuter1"/><feGaussianBlur stdDeviation=".5" in="shadowOffsetOuter1" result="shadowBlurOuter1"/><feColorMatrix values="0 0 0 0 0 0 0 0 0 0 0 0 0 0 0 0 0 0 0.1 0" in="shadowBlurOuter1"/></filter></defs><g fill="none" fill-rule="evenodd"><path fill="#E4E4E3" d="M0 0h80v113H.04z"/><path fill="#BBB" d="M74.002 30v77.209h-68V6H50z"/><use fill="#000" filter="url(#a)" xlink:href="#b"/><use fill="#F1F1F1" xlink:href="#b"/><path d="M24 56.992c0-1.166.174-2.146.523-2.937a5.39 5.39 0 0 1 1.067-1.57c.45-.464.944-.808 1.48-1.032.714-.302 1.537-.453 2.47-.453 1.687 0 3.037.523 4.05 1.57 1.013 1.047 1.52 2.503 1.52 4.367 0 1.85-.503 3.296-1.508 4.34-1.006 1.045-2.35 1.567-4.032 1.567-1.703 0-3.057-.52-4.062-1.559C24.503 60.246 24 58.815 24 56.992zm2.383-.078c0 1.297.3 2.28.898 2.95.6.669 1.36 1.003 2.282 1.003.921 0 1.678-.332 2.269-.996.591-.664.887-1.66.887-2.988 0-1.313-.288-2.292-.864-2.938-.575-.646-1.34-.968-2.293-.968-.953 0-1.72.326-2.304.98-.584.654-.875 1.64-.875 2.957zm10.053-5.719h4.226c.953 0 1.68.073 2.18.22a3.83 3.83 0 0 1 1.726 1.054c.48.505.844 1.123 1.094 1.855.25.732.375 1.634.375 2.707 0 .943-.117 1.755-.351 2.438-.287.833-.696 1.508-1.227 2.023-.4.39-.943.695-1.625.914-.51.162-1.193.242-2.047.242h-4.351V51.195zm2.312 1.938v7.586h1.727c.646 0 1.112-.037 1.398-.11.375-.093.686-.252.934-.476.247-.224.449-.593.605-1.106.156-.513.235-1.212.235-2.097 0-.886-.079-1.565-.235-2.04-.156-.473-.375-.843-.656-1.109-.281-.265-.638-.445-1.07-.539-.323-.073-.956-.11-1.899-.11h-1.039zm8.194 5.789l2.25-.219c.135.755.41 1.31.824 1.664.414.354.973.531 1.676.531.744 0 1.306-.157 1.683-.472.378-.315.567-.684.567-1.106 0-.27-.08-.501-.239-.691-.159-.19-.436-.356-.832-.496-.27-.094-.888-.26-1.851-.5-1.24-.307-2.11-.685-2.61-1.133-.703-.63-1.054-1.398-1.054-2.305 0-.583.165-1.129.496-1.636.33-.508.807-.895 1.43-1.16.622-.266 1.373-.399 2.253-.399 1.438 0 2.52.315 3.246.945.727.63 1.109 1.472 1.145 2.524l-2.312.101c-.1-.588-.312-1.011-.637-1.27-.326-.257-.814-.386-1.465-.386-.672 0-1.198.138-1.578.414a.834.834 0 0 0-.367.711c0 .27.114.503.343.695.292.245 1 .5 2.125.766s1.957.54 2.496.824c.54.284.961.672 1.266 1.164.305.492.457 1.1.457 1.825 0 .656-.182 1.27-.547 1.843-.364.573-.88.999-1.547 1.278-.666.278-1.497.418-2.492.418-1.448 0-2.56-.335-3.336-1.004-.776-.67-1.24-1.645-1.39-2.926z" fill="#FFF"/></g></svg>
