<?xml version="1.0" encoding="UTF-8"?>
<svg width="635" height="87" xmlns="http://www.w3.org/2000/svg"><g fill="#1D1D1B" fill-rule="nonzero"><path d="M0 2v21.18l21.18 21.17L0 65.53V86.7l42.35-42.35zM63.85 20.23h-1.49c-2.5 0-5.62-.06-5.73 4.37v5c0 1.34.17 3.7 2.33 4.25a9.81 9.81 0 002.18.3 12.13 12.13 0 003.81-.7v-3.73h-4v-3.29h8.27v9.08l-.47.29a15.331 15.331 0 01-7.63 2 17.52 17.52 0 01-3.17-.4c-5.43-1.4-5.78-5.4-5.78-7.8v-4.89c0-2.44.15-6.46 5.74-7.77a15.9 15.9 0 013.67-.38 30.32 30.32 0 016.2.61v5.45h-3.93v-2.39zM87.38 37.52h-4.22L81 29.2h-.06l-2.21 8.32h-4.27L71 25.76h-1.72v-3.14h7.65v3.14h-1.6l1.46 6.09 2.48-8.8h3.2l2.53 8.8 1.48-6.09h-1.6v-3.14h7.63v3.14h-1.72zM111.43 34.38v3.14h-6.29v-8.38c0-1.92-.08-3.38-2.15-3.38a9.31 9.31 0 00-2.62.44v8.18h1.95v3.14h-8.24v-3.14h2v-8.62h-2.23v-3.14h5.67l.27.81a9.86 9.86 0 014.1-1.08c4.43 0 5.59 2 5.59 5.68v6.35h1.95zM116.24 31.29c0 2.24.82 2.83 1.87 3a13.91 13.91 0 006.23-.35v3.26a25.79 25.79 0 01-4.75.58c-5.41 0-7.65-1.57-7.65-7.65 0-6.49 2.65-7.78 7-7.78 3.93 0 6.41 1.34 6.41 6.29-.01.886-.07 1.77-.18 2.65h-8.93zm5-2.79c.18-1.95-.61-2.83-2.12-2.83H119c-1.42 0-2.41.5-2.68 2.83h4.92zM143.88 37.52h-4.22l-2.21-8.32h-.06l-2.22 8.32H131l-3.43-11.76h-1.75v-3.14h7.66v3.14h-1.6l1.45 6.09h.06l2.48-8.8H139l2.44 8.8h.06l1.5-6.09h-1.6v-3.14h7.6v3.14h-1.74zM157.83 25.91a6.84 6.84 0 00-.81-.06c-2.42 0-3.09 1.25-3.09 3.17v2.1c0 1.92.67 3.17 3.09 3.17a22.3 22.3 0 004.6-.44v3.38a30.28 30.28 0 01-5.13.55 12.54 12.54 0 01-2.59-.29c-4.19-1-4.31-3.93-4.31-5.7v-3.44c0-1.77.12-4.69 4.31-5.7.85-.19 1.719-.29 2.59-.3a29.2 29.2 0 015.13.56v4.92h-3.79v-1.92zM174.14 37.52v-9.14c0-2.15-.73-2.65-2.53-2.65a10.61 10.61 0 00-2.53.29v8.36H171v3.14h-8.21v-3.14h2V20h-2.19v-3.18h6.53v6a15.29 15.29 0 013.78-.5c4.43 0 5.62 2 5.62 5.68v6.35h1.92v3.14h-6.26l-.05.03zM215.76 28.5c0-1.78.12-4.84 4.13-5.8a11.92 11.92 0 012.83-.35 23.19 23.19 0 016.52 1v11.03h1.92v3.14h-5.41l-.27-.84a9.38 9.38 0 01-4.1 1.1c-4.43 0-5.62-2.62-5.62-6.25V28.5zm4.34 3.23c0 1.92.49 2.65 2.56 2.65a8.91 8.91 0 002.24-.38v-8.09a16.19 16.19 0 00-2.24-.18c-2.24 0-2.56 1-2.56 2.88v3.12zM243.62 37.52v-9.14c0-2.15-.72-2.65-2.53-2.65a10.68 10.68 0 00-2.53.29v8.36h1.92v3.14h-8.21v-3.14h1.95V20H232v-3.18h6.52v6a15.29 15.29 0 013.78-.5c4.43 0 5.62 2 5.62 5.68v6.35h1.92v3.14h-6.26l.04.03zM250.5 28.5c0-1.78.12-4.84 4.14-5.8a11.83 11.83 0 012.82-.35c2.21.02 4.406.356 6.52 1v11.03h1.93v3.14h-5.42l-.26-.84a9.41 9.41 0 01-4.11 1.1c-4.42 0-5.62-2.62-5.62-6.25V28.5zm4.34 3.23c0 1.92.5 2.65 2.56 2.65a8.9 8.9 0 002.25-.41v-8.06a16.32 16.32 0 00-2.25-.18c-2.24 0-2.56 1-2.56 2.88v3.12zM284.49 34.38v3.14h-6.29v-8.38c0-1.92-.09-3.38-2.16-3.38a9.36 9.36 0 00-2.62.44v8.18h1.95v3.14h-8.24v-3.14h2v-8.62h-2.23v-3.14h5.68l.26.81a9.9 9.9 0 014.16-1.08c4.42 0 5.59 2 5.59 5.68v6.35h1.9zM292.09 22.62v11.76H294v3.14h-8.2v-3.14h1.95v-8.62h-2.18v-3.14h6.52zM289.91 21c-1.58 0-2.36-.33-2.36-2.13v-.23c0-1.78.78-2.1 2.36-2.1 1.58 0 2.35.32 2.35 2.1v.23c0 1.82-.78 2.13-2.35 2.13zM294.92 28.5c0-1.78.12-4.84 4.14-5.8a11.77 11.77 0 012.82-.35 23.19 23.19 0 016.52 1v11.03h1.92v3.14h-5.41l-.26-.84a9.41 9.41 0 01-4.11 1.1c-4.43 0-5.62-2.62-5.62-6.25V28.5zm4.34 3.23c0 1.92.49 2.65 2.56 2.65a8.83 8.83 0 002.24-.41v-8.06a16.19 16.19 0 00-2.24-.18c-2.24 0-2.56 1-2.56 2.88v3.12zM315.05 31.29c0 2.24.82 2.83 1.86 3a13.9 13.9 0 006.23-.35v3.26a25.67 25.67 0 01-4.74.58c-5.42 0-7.66-1.57-7.66-7.65 0-6.49 2.65-7.78 7.05-7.78 3.93 0 6.4 1.34 6.4 6.29a25.61 25.61 0 01-.17 2.65h-8.97zm5-2.79c.17-1.95-.61-2.83-2.13-2.83h-.11c-1.43 0-2.42.5-2.68 2.83h4.92zM335 37.49a21 21 0 01-3 .29c-2.94 0-5.12-1.48-5.21-4.68v-7.31h-2.1v-3.17h2.25l.64-3.7h3.52v3.7h3.9v3.17h-3.9v6.75c0 1 .44 1.72 1.48 1.72a17.78 17.78 0 002.45-.14l-.03 3.37zM347.43 37.52v-9.14c0-2.15-.72-2.65-2.53-2.65a10.68 10.68 0 00-2.53.29v8.36h1.92v3.14h-8.21v-3.14H338V20h-2.18v-3.18h6.52v6a15.29 15.29 0 013.78-.5c4.43 0 5.62 2 5.62 5.68v6.35h1.92v3.14h-6.26l.03.03zM57.82 66.06C54.15 66 52 64.14 52 59.92v-2.83c0-3.63 1.19-6.46 5.62-6.46a9.9 9.9 0 014.22 1.11l.26-.85h5.68V54h-2.21v9.81c0 2.91 0 6.32-4.93 7.57a32 32 0 01-6.72.52h-1.25v-3.4c2.65 0 5.5 0 7-.53a2.31 2.31 0 001.43-2.41 12.12 12.12 0 01-3.28.5zm3.41-11.73a12.81 12.81 0 00-2.42-.33c-2 0-2.56.73-2.56 2.65V60c0 2.15.76 2.64 2.56 2.64a9.26 9.26 0 002.42-.29v-8.02zM68.56 50.89h7.78V54h-1.52l2.33 6.78h.06L79.48 54H78v-3.11h7.77V54H84l-4.33 10.8C78.46 68.33 77 70.52 74 71.56a15.39 15.39 0 01-4.49.38v-3.4c3-.09 4.26-.06 5.48-3.06L70.31 54h-1.75v-3.11zM96 65a10 10 0 01-4.23 1.1c-4.42 0-5.62-2.82-5.62-6.46v-2.87c0-4.22 2.19-6.05 5.86-6.14 1.152-.01 2.3.158 3.4.5v-2.89h-2.18V45.1h6.52v17.56h2v3.14h-5.5L96 65zm-.59-10.7A9.632 9.632 0 0093 54c-1.81 0-2.57.49-2.57 2.65V60c0 1.92.53 2.64 2.57 2.64a12.61 12.61 0 002.41-.32V54.3zM102.21 56.77c0-1.77.12-4.83 4.13-5.79a11.92 11.92 0 012.83-.35 22.84 22.84 0 016.52 1v11.03h1.92v3.14h-5.41l-.27-.84a9.52 9.52 0 01-4.1 1.1c-4.43 0-5.62-2.62-5.62-6.26v-3.03zm4.34 3.23c0 1.92.49 2.65 2.56 2.65a8.91 8.91 0 002.24-.41v-8.06a17.86 17.86 0 00-2.24-.17c-2.24 0-2.56 1-2.56 2.88V60zM143.75 62.66v3.14h-6.29v-8.39c0-1.92-.09-3.37-2.16-3.37a9.32 9.32 0 00-2.62.43v8.19h1.95v3.14h-8.24v-3.14h2V54h-2.18v-3.11h5.68l.26.82a9.86 9.86 0 014.11-1.08c4.42 0 5.59 2 5.59 5.68v6.35h1.9zM151.35 50.89v11.77h1.92v3.14h-8.21v-3.14H147V54h-2.18v-3.11h6.53zm-2.19-1.6c-1.57 0-2.35-.32-2.35-2.12v-.24c0-1.77.78-2.09 2.35-2.09s2.36.32 2.36 2.09v.24c0 1.83-.78 2.12-2.36 2.12z"/><path d="M196.39 20.26l2.21 9.8h.15l2.93-12.36H206l2.93 12.36h.07l2.21-9.8h-2v-3.34h8.52v3.34h-1.89l-4.56 17.33h-4.42l-2.94-12.88h-.14l-3 12.88h-4.45l-4.59-17.33h-1.89v-3.34h8.55v3.34z"/></g></svg>