<?xml version="1.0" encoding="UTF-8"?>
<svg width="42" height="34" xmlns="http://www.w3.org/2000/svg"><g fill="none" fill-rule="evenodd"><path fill="#048400" d="M0 15h42v19H0z"/><path d="M14.77 25.46c0 .3.035.592.105.875.07.283.182.538.335.765.153.227.353.408.6.545.247.137.547.205.9.205s.653-.068.9-.205c.247-.137.447-.318.6-.545.153-.227.265-.482.335-.765.07-.283.105-.575.105-.875 0-.313-.035-.617-.105-.91a2.41 2.41 0 0 0-.335-.785 1.7 1.7 0 0 0-.6-.55c-.247-.137-.547-.205-.9-.205s-.653.068-.9.205a1.7 1.7 0 0 0-.6.55 2.41 2.41 0 0 0-.335.785c-.07.293-.105.597-.105.91zm-1.57 0c0-.533.08-1.028.24-1.485.16-.457.39-.855.69-1.195.3-.34.668-.607 1.105-.8.437-.193.928-.29 1.475-.29.553 0 1.047.097 1.48.29.433.193.8.46 1.1.8.3.34.53.738.69 1.195.16.457.24.952.24 1.485 0 .52-.08 1.005-.24 1.455-.16.45-.39.842-.69 1.175-.3.333-.667.595-1.1.785-.433.19-.927.285-1.48.285a3.661 3.661 0 0 1-1.475-.285 3.16 3.16 0 0 1-1.105-.785c-.3-.333-.53-.725-.69-1.175-.16-.45-.24-.935-.24-1.455zm11.16 2.22h1.4c.227 0 .447-.037.66-.11.213-.073.403-.195.57-.365.167-.17.3-.392.4-.665.1-.273.15-.607.15-1 0-.36-.035-.685-.105-.975a1.945 1.945 0 0 0-.345-.745 1.53 1.53 0 0 0-.635-.475c-.263-.11-.588-.165-.975-.165h-1.12v4.5zm-1.57-5.82h3.08c.46 0 .888.073 1.285.22.397.147.74.367 1.03.66.29.293.517.66.68 1.1.163.44.245.957.245 1.55 0 .52-.067 1-.2 1.44-.133.44-.335.82-.605 1.14-.27.32-.607.572-1.01.755-.403.183-.878.275-1.425.275h-3.08v-7.14zm9.98 4.77c0 .24.043.443.13.61.087.167.202.302.345.405.143.103.312.18.505.23.193.05.393.075.6.075.14 0 .29-.012.45-.035.16-.023.31-.068.45-.135a.982.982 0 0 0 .35-.275.69.69 0 0 0 .14-.445.626.626 0 0 0-.185-.47 1.467 1.467 0 0 0-.485-.3 4.84 4.84 0 0 0-.68-.21c-.253-.06-.51-.127-.77-.2a6.837 6.837 0 0 1-.78-.245 2.68 2.68 0 0 1-.68-.375 1.766 1.766 0 0 1-.485-.575c-.123-.23-.185-.508-.185-.835 0-.367.078-.685.235-.955a2.13 2.13 0 0 1 .615-.675c.253-.18.54-.313.86-.4.32-.087.64-.13.96-.13.373 0 .732.042 1.075.125.343.083.648.218.915.405.267.187.478.425.635.715.157.29.235.642.235 1.055H35.5a1.262 1.262 0 0 0-.135-.53.883.883 0 0 0-.305-.33 1.29 1.29 0 0 0-.435-.17 2.678 2.678 0 0 0-.535-.05 1.84 1.84 0 0 0-.38.04 1.016 1.016 0 0 0-.345.14.868.868 0 0 0-.255.25c-.067.1-.1.227-.1.38 0 .14.027.253.08.34.053.087.158.167.315.24.157.073.373.147.65.22.277.073.638.167 1.085.28.133.027.318.075.555.145.237.07.472.182.705.335.233.153.435.358.605.615.17.257.255.585.255.985 0 .327-.063.63-.19.91s-.315.522-.565.725c-.25.203-.56.362-.93.475-.37.113-.798.17-1.285.17a4.51 4.51 0 0 1-1.145-.145 2.88 2.88 0 0 1-.98-.455 2.248 2.248 0 0 1-.675-.79c-.167-.32-.247-.7-.24-1.14h1.52z" fill="#FFF"/><path fill="#CFCFCE" d="M14 0v15h3V3.167h22V15h3V0z"/><path fill="#EEECEA" d="M18 7h6V4h-6zM32 7h6V4h-6zM25 7h6V4h-6zM18 11h6V8h-6zM32 11h6V8h-6zM25 11h6V8h-6zM18 15h6v-3h-6zM32 15h6v-3h-6zM25 15h6v-3h-6z"/></g></svg>
