<?xml version="1.0" encoding="UTF-8"?>
<svg width="80" height="113" xmlns="http://www.w3.org/2000/svg" xmlns:xlink="http://www.w3.org/1999/xlink"><defs><path id="b" d="M50 6l24 24H50z"/><filter x="-9.4%" y="-5.2%" width="114.6%" height="114.6%" filterUnits="objectBoundingBox" id="a"><feOffset dx="-.5" dy=".5" in="SourceAlpha" result="shadowOffsetOuter1"/><feGaussianBlur stdDeviation=".5" in="shadowOffsetOuter1" result="shadowBlurOuter1"/><feColorMatrix values="0 0 0 0 0 0 0 0 0 0 0 0 0 0 0 0 0 0 0.1 0" in="shadowBlurOuter1"/></filter></defs><g fill="none" fill-rule="evenodd"><path fill="#E4E4E3" d="M0 0h80v113H.04z"/><path fill="#BBB" d="M74.002 30v77.209h-68V6H50z"/><use fill="#000" filter="url(#a)" xlink:href="#b"/><use fill="#F1F1F1" xlink:href="#b"/><path d="M20 62.453V51h3.71c1.407 0 2.324.057 2.75.172.657.172 1.207.545 1.65 1.121.442.575.663 1.319.663 2.23 0 .704-.127 1.295-.382 1.774a3.14 3.14 0 0 1-.973 1.129 3.352 3.352 0 0 1-1.2.543c-.551.11-1.35.164-2.398.164h-1.508v4.32H20zm2.313-9.516v3.25h1.265c.912 0 1.521-.06 1.828-.18.308-.119.548-.306.723-.562a1.54 1.54 0 0 0 .262-.89c0-.417-.123-.76-.368-1.032a1.6 1.6 0 0 0-.93-.507c-.275-.052-.83-.078-1.663-.078h-1.117zm7.888 9.516V51h3.711c1.406 0 2.323.057 2.75.172.656.172 1.206.545 1.649 1.121.442.575.664 1.319.664 2.23 0 .704-.128 1.295-.383 1.774a3.14 3.14 0 0 1-.973 1.129 3.352 3.352 0 0 1-1.199.543c-.552.11-1.352.164-2.398.164h-1.508v4.32H30.2zm2.313-9.516v3.25h1.265c.912 0 1.521-.06 1.829-.18.307-.119.548-.306.722-.562a1.54 1.54 0 0 0 .262-.89c0-.417-.122-.76-.367-1.032a1.6 1.6 0 0 0-.93-.507c-.276-.052-.83-.078-1.664-.078h-1.117zm10.467 9.516v-9.516h-3.399V51h9.102v1.938h-3.39v9.515H42.98zm5.56 0l3.914-5.976L48.91 51h2.703l2.297 3.68 2.25-3.68h2.68l-3.563 5.563 3.914 5.89H56.4l-2.538-3.96-2.547 3.96H48.54z" fill="#FFF"/></g></svg>
