<?xml version="1.0" encoding="UTF-8"?>
<svg width="80" height="113" xmlns="http://www.w3.org/2000/svg" xmlns:xlink="http://www.w3.org/1999/xlink"><defs><filter x="-9.4%" y="-5.2%" width="114.6%" height="114.6%" filterUnits="objectBoundingBox" id="a"><feOffset dx="-.5" dy=".5" in="SourceAlpha" result="shadowOffsetOuter1"/><feGaussianBlur stdDeviation=".5" in="shadowOffsetOuter1" result="shadowBlurOuter1"/><feColorMatrix values="0 0 0 0 0 0 0 0 0 0 0 0 0 0 0 0 0 0 0.1 0" in="shadowBlurOuter1"/></filter><path id="b" d="M50 6l24 24H50z"/></defs><g fill="none" fill-rule="evenodd"><path fill="#E4E4E3" d="M0 0h80v113H.04z"/><path fill="#BBB" d="M74.002 30v77.209h-68V6H50z"/><use fill="#000" filter="url(#a)" xlink:href="#b"/><use fill="#F1F1F1" xlink:href="#b"/><path d="M22.773 63l2.547-3.96L27.86 63h2.788l-3.914-5.89 3.563-5.563h-2.68l-2.25 3.68-2.297-3.68h-2.703l3.547 5.476L20 63h2.773zm16.688 0v-1.93h-5.75v-9.43h-2.313V63h8.063zm5.289.203c.995 0 1.826-.14 2.492-.418.667-.278 1.182-.704 1.547-1.277a3.373 3.373 0 00.547-1.844c0-.724-.152-1.332-.457-1.824a3.217 3.217 0 00-1.266-1.164c-.539-.284-1.37-.559-2.496-.824-1.125-.266-1.833-.521-2.125-.766-.229-.193-.344-.425-.344-.695 0-.297.123-.534.368-.711.38-.276.906-.414 1.578-.414.65 0 1.14.129 1.465.386.325.258.537.681.636 1.27l2.313-.102c-.037-1.052-.418-1.893-1.145-2.523-.726-.63-1.808-.945-3.246-.945-.88 0-1.631.132-2.254.398-.622.266-1.099.652-1.43 1.16a2.944 2.944 0 00-.495 1.637c0 .906.351 1.674 1.054 2.305.5.447 1.37.825 2.61 1.132.963.24 1.58.407 1.851.5.396.141.673.306.832.496.159.19.238.421.238.692 0 .422-.188.79-.566 1.105-.378.315-.939.473-1.684.473-.703 0-1.261-.177-1.675-.531-.414-.354-.69-.91-.825-1.664l-2.25.218c.151 1.282.615 2.257 1.391 2.926.776.67 1.888 1.004 3.336 1.004zM54.688 63c1.473-.01 2.403-.036 2.789-.078.614-.068 1.131-.249 1.55-.543.42-.294.75-.688.993-1.18.242-.492.363-.998.363-1.52 0-.66-.188-1.236-.563-1.726-.375-.49-.911-.836-1.61-1.039.496-.224.888-.56 1.177-1.008.289-.448.433-.94.433-1.476 0-.495-.117-.942-.351-1.34a2.94 2.94 0 00-.88-.957 2.979 2.979 0 00-1.194-.473c-.446-.075-1.122-.113-2.028-.113H50.79V63h3.898zm.147-6.899h-1.733v-2.648h1.768c.828.004 1.34.017 1.536.04.386.046.676.18.871.402.196.22.293.509.293.863 0 .37-.113.668-.34.894-.226.227-.537.364-.933.41-.219.027-.779.04-1.68.04h.218zm.407 4.97h-2.14v-3.063h1.867c1.052 0 1.735.054 2.05.164.316.11.557.284.723.523.167.24.25.532.25.875 0 .407-.108.73-.324.973a1.433 1.433 0 01-.84.457c-.224.047-.752.07-1.586.07z" fill="#FFF" fill-rule="nonzero"/></g></svg>
