<?xml version="1.0" encoding="UTF-8"?>
<svg width="42" height="34" xmlns="http://www.w3.org/2000/svg"><g fill="none" fill-rule="evenodd"><path fill="#CFCFCE" d="M14 0v15h3V3.167h22V15h3V0z"/><path fill="#EEECEA" d="M18 8.75h20V4H18zM18 14.75h20.001V10H18z"/><path fill="#49494B" d="M0 15h42v19H0z"/><path d="M18.63 27.76l3.83-4.58h-3.53v-1.32h5.62v1.24l-3.83 4.58h3.93V29h-6.02v-1.24zm8.44-5.9h1.57V29h-1.57v-7.14zm6.02 3.36h1.22c.18 0 .353-.013.52-.04a1.21 1.21 0 0 0 .44-.155.844.844 0 0 0 .305-.325c.077-.14.115-.323.115-.55 0-.227-.038-.41-.115-.55a.844.844 0 0 0-.305-.325 1.21 1.21 0 0 0-.44-.155 3.288 3.288 0 0 0-.52-.04h-1.22v2.14zm-1.57-3.36h3.22c.447 0 .827.065 1.14.195.313.13.568.302.765.515.197.213.34.457.43.73a2.715 2.715 0 0 1 0 1.695c-.09.277-.233.522-.43.735a2.133 2.133 0 0 1-.765.515c-.313.13-.693.195-1.14.195h-1.65V29h-1.57v-7.14z" fill="#FFF"/></g></svg>
