<?xml version="1.0" encoding="UTF-8"?>
<svg width="80" height="113" xmlns="http://www.w3.org/2000/svg" xmlns:xlink="http://www.w3.org/1999/xlink"><defs><filter x="-9.4%" y="-5.2%" width="114.6%" height="114.6%" filterUnits="objectBoundingBox" id="a"><feOffset dx="-.5" dy=".5" in="SourceAlpha" result="shadowOffsetOuter1"/><feGaussianBlur stdDeviation=".5" in="shadowOffsetOuter1" result="shadowBlurOuter1"/><feColorMatrix values="0 0 0 0 0 0 0 0 0 0 0 0 0 0 0 0 0 0 0.1 0" in="shadowBlurOuter1"/></filter><path id="b" d="M50 6l24 24H50z"/></defs><g fill="none" fill-rule="evenodd"><path fill="#E4E4E3" d="M0 0h80v113H.04z"/><path fill="#BBB" d="M74.002 30v77.209h-68V6H50z"/><use fill="#000" filter="url(#a)" xlink:href="#b"/><use fill="#F1F1F1" xlink:href="#b"/><path d="M21.773 62.648l2.547-3.96 2.54 3.96h2.788l-3.914-5.89 3.563-5.563h-2.68l-2.25 3.68-2.297-3.68h-2.703l3.547 5.477L19 62.648h2.773zm16.902 0v-1.93h-5.75V51.29h-2.312v11.36h8.062zm5.504.204c.994 0 1.825-.14 2.492-.418.666-.28 1.182-.705 1.547-1.278a3.373 3.373 0 00.547-1.843c0-.724-.153-1.333-.458-1.825a3.217 3.217 0 00-1.265-1.164c-.54-.284-1.371-.558-2.496-.824-1.125-.266-1.834-.52-2.125-.766-.23-.192-.344-.424-.344-.695 0-.297.122-.534.367-.71.38-.277.906-.415 1.578-.415.651 0 1.14.129 1.465.387.326.258.538.68.637 1.27l2.312-.102c-.036-1.052-.418-1.893-1.144-2.524-.727-.63-1.809-.945-3.246-.945-.88 0-1.632.133-2.254.398-.623.266-1.1.653-1.43 1.16a2.944 2.944 0 00-.496 1.637c0 .907.352 1.675 1.055 2.305.5.448 1.37.826 2.61 1.133.963.24 1.58.406 1.85.5.397.14.674.306.833.496.159.19.238.42.238.691 0 .422-.189.79-.566 1.106-.378.315-.94.472-1.684.472-.703 0-1.262-.177-1.676-.53-.414-.355-.689-.91-.824-1.665l-2.25.219c.151 1.281.615 2.256 1.39 2.926.777.669 1.889 1.004 3.337 1.004zm8.362-.204v-9.015l2.266 9.015h2.226l2.274-9.015v9.015h2.148V51.195h-3.468l-2.055 7.813-2.078-7.813h-3.461v11.453h2.148z" fill="#FFF" fill-rule="nonzero"/></g></svg>
