<?xml version="1.0" encoding="UTF-8"?>
<svg width="42" height="34" xmlns="http://www.w3.org/2000/svg"><g fill="none" fill-rule="evenodd"><path fill="#1F446D" d="M0 15h42v19H0z"/><path d="M6.97 21.86h1.57v2.74h2.89v-2.74H13V29h-1.57v-3.08H8.54V29H6.97v-7.14zm10.39 1.32h-2.14v-1.32h5.85v1.32h-2.14V29h-1.57v-5.82zm5.93-1.32h2.21l1.67 4.91h.02l1.58-4.91h2.21V29h-1.47v-5.06h-.02L27.74 29h-1.21l-1.75-5.01h-.02V29h-1.47v-7.14zm10.47 0h1.57v5.82h3.48V29h-5.05v-7.14z" fill="#FFF"/><path fill="#CFCFCE" d="M14 0v15h3V3.167h22V15h3V0z"/><g fill="#EEECEA"><path d="M24.107 14.198l-5.091-5.091L19 9.09 24.091 4l1.572 1.571-3.519 3.52 3.534 3.536-1.571 1.571zM32.091 4l5.091 5.091.016.016-5.091 5.091-1.571-1.571 3.518-3.52L30.52 5.57 32.09 4z"/></g></g></svg>
